<?xml version="1.0" encoding="utf-8"?>
<!-- Generator: Adobe Illustrator 19.0.0, SVG Export Plug-In . SVG Version: 6.00 Build 0)  -->
<svg version="1.1" id="Layer_1" xmlns="http://www.w3.org/2000/svg" xmlns:xlink="http://www.w3.org/1999/xlink" x="0px" y="0px"
	 viewBox="0 0 1280 800" style="enable-background:new 0 0 1280 800;" xml:space="preserve">
<style type="text/css">
	.st0{fill:#0700BD;}
	.st1{fill:#0100A9;}
	.st2{fill:#110099;}
	.st3{fill:#0014F3;}
	.st4{fill:#12006F;}
	.st5{fill:#12008B;}
</style>
<polygon id="XMLID_8_" class="st0" points="267,277.8 267,801 772.6,800 "/>
<polygon id="XMLID_7_" class="st1" points="1048.6,282.6 1048,800 818.2,564.1 "/>
<polygon id="XMLID_6_" class="st2" points="268.8,0 671.7,418.2 998,0 "/>
<polygon id="XMLID_4_" class="st3" points="1049,0 1048,800 1280,800 1280,0 "/>
<polygon id="XMLID_3_" class="st3" points="283.1,800 998,0 1280,0 625.1,800 "/>
<polygon id="XMLID_1_" class="st4" points="0,0 267,0 267,801 -1,801 "/>
<polygon id="XMLID_2_" class="st4" points="-1,1 268.8,0 1048,800 772.6,800 "/>
<polygon id="XMLID_9_" class="st5" points="351.3,539.5 282,470.2 282,609.4 "/>
<polygon id="XMLID_11_" class="st3" points="939,549.7 1027,638.2 1026.4,441.2 "/>
<polygon id="XMLID_13_" class="st3" points="564.2,0 647.8,86.4 727.4,0 "/>
</svg>
