<?xml version="1.0" encoding="utf-8"?>
<!-- Generator: Adobe Illustrator 19.0.0, SVG Export Plug-In . SVG Version: 6.00 Build 0)  -->
<svg version="1.1" id="Layer_1" xmlns="http://www.w3.org/2000/svg" xmlns:xlink="http://www.w3.org/1999/xlink" x="0px" y="0px"
	 viewBox="630 -390 1280 800" style="enable-background:new 630 -390 1280 800;" xml:space="preserve">
<style type="text/css">
	.st0{fill:#97D1FF;}
	.st1{fill:#155790;}
	.st2{fill:#159960;}
	.st3{fill:#159957;}
	.st4{fill:#FFFFFF;}
	.st5{fill:none;}
	.st6{fill:#155799;}
</style>
<polygon id="XMLID_8_" class="st0" points="897,-112.2 897,411 1402.6,410 "/>
<polygon id="XMLID_7_" class="st0" points="1678.6,-107.4 1678,410 1448.2,174.1 "/>
<polygon id="XMLID_6_" class="st0" points="898.8,-390 1301.7,28.2 1628,-390 "/>
<polygon id="XMLID_4_" class="st1" points="1679,-390 1678,410 1910,410 1910,-390 "/>
<polygon id="XMLID_3_" class="st1" points="913.1,410 1628,-390 1910,-390 1255.1,410 "/>
<polygon id="XMLID_1_" class="st2" points="630,-390 897,-390 897,411 629,411 "/>
<polygon id="XMLID_2_" class="st3" points="629,-389 898.8,-390 1678,410 1402.6,410 "/>
<polygon id="XMLID_9_" class="st4" points="981.3,149.5 912,80.2 912,219.4 "/>
<polygon id="XMLID_11_" class="st4" points="1569,159.7 1657,248.2 1656.4,51.2 "/>
<polygon id="XMLID_13_" class="st4" points="1194.2,-327 1277.8,-240.6 1357.4,-327 "/>
<rect id="XMLID_5_" x="217" y="-747" class="st5" width="392" height="112"/>
<text id="XMLID_10_" transform="matrix(1 0 0 1 217 -720.7305)" class="st6" style="font-family:'MyriadPro-Regular'; font-size:37px;">#155799, #159957</text>
<rect id="XMLID_12_" x="217" y="-666.4" class="st6" width="106.6" height="117"/>
<rect id="XMLID_15_" x="388" y="-666.4" class="st3" width="106.6" height="117"/>
</svg>
