<?xml version="1.0" encoding="utf-8"?>
<!-- Generator: Adobe Illustrator 19.0.0, SVG Export Plug-In . SVG Version: 6.00 Build 0)  -->
<svg version="1.1" id="Layer_1" xmlns="http://www.w3.org/2000/svg" xmlns:xlink="http://www.w3.org/1999/xlink" x="0px" y="0px"
	 viewBox="0 0 1280 800" style="enable-background:new 0 0 1280 800;" xml:space="preserve">
<style type="text/css">
	.st0{fill:#155799;}
	.st1{fill:#159957;}
	.st2{fill:#FFFFFF;}
	.st3{fill:#FFFFFF;stroke:#0C0109;stroke-miterlimit:10;}
	.st4{fill:#FF0000;stroke:#FFFFFF;stroke-miterlimit:10;}
	.st5{fill:#8CC63F;}
	.st6{fill:#3F4FE8;}
	.st7{fill:#97D1FF;}
	.st8{fill:#155790;}
	.st9{fill:#18A058;}
</style>
<rect id="XMLID_10_" x="-413" y="-357" style="fill:none;" width="584" height="112"/>
<text id="XMLID_5_" transform="matrix(1 0 0 1 -413 -330.7305)"><tspan x="0" y="0" class="st0" style="font-family:'MyriadPro-Regular'; font-size:37px;">#155799, #159957, </tspan><tspan x="295.5" y="0" class="st9" style="font-family:'MyriadPro-Regular'; font-size:37px;"> #18a058</tspan></text>
<rect id="XMLID_12_" x="-413" y="-276.4" class="st0" width="106.6" height="117"/>
<rect id="XMLID_15_" x="-242" y="-276.4" class="st1" width="106.6" height="117"/>
<rect id="XMLID_14_" x="317.6" y="-283.9" class="st2" width="153" height="153"/>
<rect id="XMLID_16_" x="350.5" y="-252.5" class="st3" width="82" height="86"/>
<polygon id="XMLID_20_" class="st4" points="360.5,-192 360.5,-173.5 422,-173.5 "/>
<polygon id="XMLID_18_" class="st5" points="384,-240 360,-240 384,-223 "/>
<polygon id="XMLID_19_" class="st6" points="394,-240 422,-240 394,-216.3 "/>
<rect id="XMLID_37_" x="-1490" y="931" class="st7" width="1300" height="799"/>
<polygon id="XMLID_35_" class="st1" points="-480,1730 -1189,930 -1471,931 -1471,1208 -1243.4,1208 -780,1730 "/>
<polygon id="XMLID_23_" class="st8" points="-190,931 -459.8,930 -1239,1730 -963.6,1730 "/>
<polygon id="XMLID_22_" class="st9" points="-1190.9,930 -942.6,1208 -1475,1208 -1475,931 "/>
<rect id="XMLID_32_" x="-1476" class="st7" width="1287.7" height="799"/>
<polygon id="XMLID_31_" class="st1" points="-1186,799 -477,-1 -195,0 -195,277 -422.6,277 -886,799 "/>
<polygon id="XMLID_28_" class="st0" points="-1475,-1 -1208,-1 -1208,800 -1476,800 "/>
<polygon id="XMLID_21_" class="st8" points="-1476,0 -1206.3,-1 -427,799 -702.4,799 "/>
<rect id="XMLID_13_" x="-1054.4" y="-283.9" class="st2" width="153" height="153"/>
<rect id="XMLID_39_" x="-21" y="2" class="st7" width="1301" height="799"/>
<polygon id="XMLID_36_" class="st8" points="990,801 281,1 -1,2 -1,279 226.6,279 690,801 "/>
<polygon id="XMLID_27_" class="st1" points="1280,2 1010.3,1 231,801 506.4,801 "/>
<polygon id="XMLID_24_" class="st0" points="281,1 527.4,279 -1,279 -1,2 "/>
<polygon id="XMLID_9_" class="st9" points="-477,-1 -723.4,277 -195,277 -195,0 "/>
<rect id="XMLID_7_" x="-37" y="-276.4" class="st9" width="142" height="133.4"/>
<polygon id="XMLID_26_" class="st0" points="-190,930 -458,930 -730.5,1208 -190,1208 "/>
<polygon id="XMLID_2_" class="st9" points="1010.3,2 1299,2 1299,803 1009,803 "/>
</svg>
